# xmcd
#
# Track frame offsets:
#	150
#	18100
#	31885
#	48120
#	66435
#	78905
#	91705
#	115915
#	131230
#	147317
#	163395
#	176980
#
# Disc length: 2666 seconds
#
# Revision: 1
# Processed by: cddbd v1.5.2PL0 Copyright (c) Steve Scherf et al.
# Submitted via: EasyCDDAExtractor 10.0.3.1
#
DISCID=a00a680c
DTITLE=Shady Mix - Bottomlands
DYEAR=1998
DGENRE=Country
TTITLE0=bottomlands
TTITLE1=river road
TTITLE2=down to the levee
TTITLE3=louisiana 1927
TTITLE4=cash on the barrelhead
TTITLE5=chicken fence rag
TTITLE6=satisfied mind
TTITLE7=good love
TTITLE8=mississippi (roll on forever)
TTITLE9=roseville fair
TTITLE10=indian creek
TTITLE11=mississippi lullaby
EXTD=
EXTT0=
EXTT1=
EXTT2=
EXTT3=
EXTT4=
EXTT5=
EXTT6=
EXTT7=
EXTT8=
EXTT9=
EXTT10=
EXTT11=
PLAYORDER=
